<?xml version="1.0" encoding="UTF-8" standalone="no"?>
<svg
   xmlns:dc="http://purl.org/dc/elements/1.1/"
   xmlns:cc="http://creativecommons.org/ns#"
   xmlns:rdf="http://www.w3.org/1999/02/22-rdf-syntax-ns#"
   xmlns:svg="http://www.w3.org/2000/svg"
   xmlns="http://www.w3.org/2000/svg"
   viewBox="0 0 500 500"
   height="500"
   width="500"
   xml:space="preserve"
   id="svg2"
   version="1.1"><metadata
     id="metadata8"><rdf:RDF><cc:Work
         rdf:about=""><dc:format>image/svg+xml</dc:format><dc:type
           rdf:resource="http://purl.org/dc/dcmitype/StillImage" /></cc:Work></rdf:RDF></metadata><defs
     id="defs6"><clipPath
       id="clipPath14"
       clipPathUnits="userSpaceOnUse"><path
         id="path12"
         d="M 0,8.039989 H 375 V 383.03998 H 0 Z" /></clipPath><clipPath
       id="clipPath24"
       clipPathUnits="userSpaceOnUse"><path
         style="clip-rule:evenodd"
         id="path22"
         d="M 0,0 H 1562.5 V 1593.75 H 0 Z" /></clipPath><clipPath
       id="clipPath36"
       clipPathUnits="userSpaceOnUse"><path
         style="clip-rule:evenodd"
         id="path34"
         d="M 0,0 H 1562.5 V 1562.5 H 0 Z" /></clipPath><clipPath
       id="clipPath48"
       clipPathUnits="userSpaceOnUse"><path
         style="clip-rule:evenodd"
         id="path46"
         d="M 0,0 H 1562.5 V 1562.5 H 0 Z" /></clipPath><clipPath
       id="clipPath60"
       clipPathUnits="userSpaceOnUse"><path
         style="clip-rule:evenodd"
         id="path58"
         d="M 0,0 H 1562.5 V 1562.5 H 0 Z" /></clipPath><clipPath
       id="clipPath74"
       clipPathUnits="userSpaceOnUse"><path
         id="path72"
         d="M 0,0 H 1562.5 V 1593.75 H 0 Z" /></clipPath><clipPath
       id="clipPath80"
       clipPathUnits="userSpaceOnUse"><path
         id="path78"
         d="M 0,0 H 1562.5 V 1562.5 H 0 Z" /></clipPath><clipPath
       id="clipPath86"
       clipPathUnits="userSpaceOnUse"><path
         id="path84"
         d="M 0,0 H 1562.5 V 1562.5 H 0 Z" /></clipPath><clipPath
       id="clipPath92"
       clipPathUnits="userSpaceOnUse"><path
         id="path90"
         d="M 387.59619,526.81702 778.76086,429.3494 848.27271,708.31958 457.10797,805.78723 Z" /></clipPath><clipPath
       id="clipPath98"
       clipPathUnits="userSpaceOnUse"><path
         id="path96"
         d="M 387.59619,526.81702 778.76086,429.3494 848.27271,708.31958 457.10797,805.78723 Z" /></clipPath><clipPath
       id="clipPath212"
       clipPathUnits="userSpaceOnUse"><path
         style="clip-rule:evenodd"
         id="path210"
         d="M 0,0 H 1562.5 V 1562.5 H 0 Z" /></clipPath></defs><g
     clip-path="url(#clipPath14)"
     transform="matrix(1.3333333,0,0,-1.3333333,0,510.71997)"
     id="g10"><g
       transform="matrix(0.31999998,0,0,0.31999998,0,9.434666e-6)"
       id="g16"><g
         id="g18"><g
           clip-path="url(#clipPath24)"
           id="g20"><g
             transform="scale(3.125)"
             id="g26"><path
               id="path28"
               style="fill:#ffffff;fill-opacity:1;fill-rule:nonzero;stroke:none"
               d="M 0,0 H 500 V 510 H 0 Z" /></g></g></g><g
         id="g30"><g
           clip-path="url(#clipPath36)"
           id="g32"><g
             transform="scale(3.125)"
             id="g38"><path
               id="path40"
               style="fill:#ffffff;fill-opacity:1;fill-rule:nonzero;stroke:none"
               d="M 0,0 H 500 V 500 H 0 Z" /></g></g></g><g
         id="g42"><g
           clip-path="url(#clipPath48)"
           id="g44"><g
             transform="scale(3.125)"
             id="g50"><path
               id="path52"
               style="fill:#000000;fill-opacity:1;fill-rule:nonzero;stroke:none"
               d="M 0,0 H 500 V 500 H 0 Z" /></g></g></g><g
         id="g54"><g
           clip-path="url(#clipPath60)"
           id="g56"><g
             transform="matrix(3.125,0,0,3.125,37.967289,690.72772)"
             id="g62"><text
               id="text66"
               style="font-variant:normal;font-size:79.91000366px;font-family:LeJour;-inkscape-font-specification:LeJour-Script;writing-mode:lr-tb;fill:#ffffff;fill-opacity:1;fill-rule:nonzero;stroke:none"
               transform="translate(2.3125,70)"><tspan
                 id="tspan64"
                 y="0"
                 x="0 97.565506 153.34006 205.43892 237.40141 345.83417 394.89661 424.94135">Ice Shop</tspan></text>
</g></g></g><g
         id="g68"><g
           clip-path="url(#clipPath74)"
           id="g70"><g
             clip-path="url(#clipPath80)"
             id="g76"><g
               clip-path="url(#clipPath86)"
               id="g82"><g
                 clip-path="url(#clipPath92)"
                 id="g88"><g
                   clip-path="url(#clipPath98)"
                   id="g94"><g
                     transform="matrix(0.13224526,-0.03295193,0.03272915,0.13135116,387.63147,526.80823)"
                     id="g100"><path
                       id="path102"
                       style="fill:#ffffff;fill-opacity:1;fill-rule:evenodd;stroke:none"
                       d="m 1042.6,300.01001 c 21.9,24.19 33.9,58.34 43.8,94.60999 -17.6999,-28.47001 -29,-63.25 -43.8,-94.60999" /><path
                       id="path104"
                       style="fill:#ffffff;fill-opacity:1;fill-rule:evenodd;stroke:none"
                       d="m 1001,443.09 h 7 c 14.1,37.42001 36.8001,66.29 48.4,106.16 -23.5,-30.34003 -39.2,-68.48001 -55.4,-106.16" /><path
                       id="path106"
                       style="fill:#ffffff;fill-opacity:1;fill-rule:evenodd;stroke:none"
                       d="m 1799.5,514.63 c 11.9,9.59998 7.4,35.64002 11.6,53.07001 -13.4,-8.15002 -9.7,-33.40002 -11.6,-53.07001" /><path
                       id="path108"
                       style="fill:#ffffff;fill-opacity:1;fill-rule:evenodd;stroke:none"
                       d="M 957.17999,579.25 C 975.33002,615.72998 994.56,651.09998 1010.3,690.02002 987.53998,658.12 968.95996,622.08002 957.17999,579.25" /><path
                       id="path110"
                       style="fill:#ffffff;fill-opacity:1;fill-rule:evenodd;stroke:none"
                       d="m 1880.3,609.25 c 11,11.27002 8.6,36.03003 9.2,57.69 -10.8,-11.44 -7.6,-37.03998 -9.2,-57.69" /><path
                       id="path112"
                       style="fill:#ffffff;fill-opacity:1;fill-rule:evenodd;stroke:none"
                       d="m 887.95001,687.71002 c 26.12,35.40998 48.22003,74.85999 64.62,120 -23.77002,-37.77002 -46.07001,-77.01001 -64.62,-120" /><path
                       id="path114"
                       style="fill:#ffffff;fill-opacity:1;fill-rule:evenodd;stroke:none"
                       d="m 1753.4,724.63 c 37.2,1.99 71.4,27 106.1,39.24 -33.9,3.65002 -71.4,-28.40998 -106.1,-39.24" /><path
                       id="path116"
                       style="fill:#ffffff;fill-opacity:1;fill-rule:evenodd;stroke:none"
                       d="m 2293.3999,726.94 c 8.6001,8.27002 14.6001,19.19 18.3999,32.32001 -13,-3.88001 -14.3999,-19.41998 -18.3999,-32.32001" /><path
                       id="path118"
                       style="fill:#ffffff;fill-opacity:1;fill-rule:evenodd;stroke:none"
                       d="m 2381.1001,731.54999 c 4,11.77002 -4.6001,30.76001 -9.3001,41.54999 -7,-14.72998 4.8001,-30.54999 9.3001,-41.54999" /><path
                       id="path120"
                       style="fill:#ffffff;fill-opacity:1;fill-rule:evenodd;stroke:none"
                       d="m 1963.4,738.47998 c 9,11.71997 4.4,46.75 2.3001,62.31 C 1960.3,784.62 1964.9,758.48999 1963.4,738.47998" /><path
                       id="path122"
                       style="fill:#ffffff;fill-opacity:1;fill-rule:evenodd;stroke:none"
                       d="M 869.48999,780.02002 C 891.62,814.82001 907.33002,856.03003 924.88,895.41003 900.07001,863.29004 885.02002,821.42004 869.48999,780.02002" /><path
                       id="path124"
                       style="fill:#ffffff;fill-opacity:1;fill-rule:evenodd;stroke:none"
                       d="m 2415.7,810.02002 c -2.3001,20.01001 -15.5,49.16998 -30,64.61999 5.6999,-25.85998 17.3,-45.76001 30,-64.61999" /><path
                       id="path126"
                       style="fill:#ffffff;fill-opacity:1;fill-rule:evenodd;stroke:none"
                       d="m 2034.9,902.34003 c 6.6,13.59002 -5.1999,28.61999 -9.1999,39.22003 -7.4001,-6.60999 5.6999,-28.51001 9.1999,-39.21997" /><path
                       id="path128"
                       style="fill:#ffffff;fill-opacity:1;fill-rule:evenodd;stroke:none"
                       d="m 867.17999,904.64001 c 15.28003,23.95002 25.90998,52.54999 36.93,80.77002 -17.76001,-20.21002 -34.22999,-53.09002 -36.93,-80.77002" /><path
                       id="path130"
                       style="fill:#ffffff;fill-opacity:1;fill-rule:evenodd;stroke:none"
                       d="m 2422.6001,930.03003 c 4.3999,11.64001 -13.8999,39.72998 -27.7,48.46002 5.7,-19.71002 16.2,-34.57001 27.7,-48.46002" /><path
                       id="path132"
                       style="fill:#ffffff;fill-opacity:1;fill-rule:evenodd;stroke:none"
                       d="m 2415.7,1052.3001 c -7.1001,8.3 -15,15.8 -25.4,20.8 3.8001,-11.5 14,-16.8 25.4,-20.8" /><path
                       id="path134"
                       style="fill:#ffffff;fill-opacity:1;fill-rule:evenodd;stroke:none"
                       d="m 1393.4,1403.1 c -29.1999,3 -68.1999,-4.2 -97,-9.2 25.6,-8.1999 70.7,2.8001 97,9.2" /><path
                       id="path136"
                       style="fill:#ffffff;fill-opacity:1;fill-rule:evenodd;stroke:none"
                       d="m 1880.3,1391.6 c -28.1999,11.8 -64.3,15.6999 -97,23 23.3001,-15.3001 63.5,-25.7 97,-23" /><path
                       id="path138"
                       style="fill:#ffffff;fill-opacity:1;fill-rule:evenodd;stroke:none"
                       d="m 1956.4,1398.5 c 12.7,8.1 17.2,24.4 18.5,43.8001 C 1965,1431.4 1960.3,1415.4 1956.4,1398.5" /><path
                       id="path140"
                       style="fill:#ffffff;fill-opacity:1;fill-rule:evenodd;stroke:none"
                       d="m 1183.3001,1435.4 c 20.4,18.1 16.5,60.4001 18.5,96.9001 -12.4001,-26 -10.2,-66.7 -18.5,-96.9001" /><path
                       id="path142"
                       style="fill:#ffffff;fill-opacity:1;fill-rule:evenodd;stroke:none"
                       d="m 1905.7,1493.1 c 9.0999,17 11.3,41 13.8,64.6 -8.4,-16.8001 -15.1,-45.6 -13.8,-64.6" /><path
                       id="path144"
                       style="fill:#ffffff;fill-opacity:1;fill-rule:evenodd;stroke:none"
                       d="m 1469.5,1516.2 c -21.8,2.5 -64.4,-6.3001 -76.1,-13.9001 25.3001,-4.3 56.5,4.9001 76.1,13.9001" /><path
                       id="path146"
                       style="fill:#ffffff;fill-opacity:1;fill-rule:evenodd;stroke:none"
                       d="m 2572.6001,1504.6 c 11.3,20.3 9.3,53.8 11.5,83.1 -10.1001,-20 -11.7,-60.3001 -11.5,-83.1" /><path
                       id="path148"
                       style="fill:#ffffff;fill-opacity:1;fill-rule:evenodd;stroke:none"
                       d="m 1278,1513.9 c 15.8001,35.7 14.2,108.1 6.9,152.3001 -6.3,-45.3001 -5.1999,-110.1 -6.9,-152.3001" /><path
                       id="path150"
                       style="fill:#ffffff;fill-opacity:1;fill-rule:evenodd;stroke:none"
                       d="m 1808.8,1603.9 c 13,16.9001 10.6,49.3001 11.5,78.5 -11.3,-17.4 -15.5,-53.5999 -11.5,-78.5" /><path
                       id="path152"
                       style="fill:#ffffff;fill-opacity:1;fill-rule:evenodd;stroke:none"
                       d="m 2639.5,1603.9 c 19.2,9.3001 14.2,42.7 16.2,69.2 -11,-17.4 -10.3001,-46.7 -16.2,-69.2" /><path
                       id="path154"
                       style="fill:#ffffff;fill-opacity:1;fill-rule:evenodd;stroke:none"
                       d="m 2217.2,1606.2 c 3.6999,-0.7 4,2.1999 6.8999,2.3 -12.8001,31.8001 -25.3999,63.8001 -41.5,92.3 3.6001,-30.1999 20.5,-67.1999 34.6001,-94.5999" /><path
                       id="path156"
                       style="fill:#ffffff;fill-opacity:1;fill-rule:evenodd;stroke:none"
                       d="m 1649.5,1610.8001 c 13,-3.7 33.7,4.8 53.1,2.3 -7.5,18.7 -38,-0.1 -53.1,-2.3" /><path
                       id="path158"
                       style="fill:#ffffff;fill-opacity:1;fill-rule:evenodd;stroke:none"
                       d="m 1354.1,1620 c 12.3,27.4 10.6999,74.3 9.3,108.5 -8.3,-30.9 -8.5999,-69.9 -9.3,-108.5" /><path
                       id="path160"
                       style="fill:#ffffff;fill-opacity:1;fill-rule:evenodd;stroke:none"
                       d="m 2713.3999,1705.4 c 11.3001,8.7 13.1001,26.9 13.8001,46.2 -11,-8.4 -15.8001,-32.2 -13.8001,-46.2" /><path
                       id="path162"
                       style="fill:#ffffff;fill-opacity:1;fill-rule:evenodd;stroke:none"
                       d="m 2238,1710 c 3.7,-0.6 3.8999,2.2 6.8999,2.3 -0.3,26.7 -9.1999,44.7 -16.1999,64.7 -6.9,-14.6 4.1,-49.3 9.3,-67" /><path
                       id="path164"
                       style="fill:#ffffff;fill-opacity:1;fill-rule:evenodd;stroke:none"
                       d="m 1709.5,1717 c 15.1,16.7 0.8,57.4 -2.3,78.4 -8.8001,-18.5 0.8,-55.1999 2.3,-78.4" /><path
                       id="path166"
                       style="fill:#ffffff;fill-opacity:1;fill-rule:evenodd;stroke:none"
                       d="m 1421,1742.4 c 12.6,6.3001 18,50 4.6,59.9 -0.9,-19.3 -8.5,-43.3 -4.6,-59.9" /><path
                       id="path168"
                       style="fill:#ffffff;fill-opacity:1;fill-rule:evenodd;stroke:none"
                       d="m 1504.1,1747 c 21.3,8.7 32.1999,27.8 46.1999,43.8 -16.9,-3.9 -36.5999,-24.9 -46.1999,-43.8" /><path
                       id="path170"
                       style="fill:#ffffff;fill-opacity:1;fill-rule:evenodd;stroke:none"
                       d="m 2270.3,1807 c 3.7,-0.7 4,2.2 6.9,2.3 -5,17.3001 -7,37.5 -13.8001,53.1 -6,-17.6 3.6001,-39.5 6.8999,-55.4" /><path
                       id="path172"
                       style="fill:#ffffff;fill-opacity:1;fill-rule:evenodd;stroke:none"
                       d="m 2362.6001,1857.7 c 16.8999,12.3 27.8,30.6999 36.8999,50.8 -16.3,-12.9 -27.6001,-30.8 -36.8999,-50.8" /><path
                       id="path174"
                       style="fill:#ffffff;fill-opacity:1;fill-rule:evenodd;stroke:none"
                       d="m 1215.6,323.09 c -7.2,17.39999 -25.1,44.08999 -46.1,55.38 10.7,-23.17001 28.5,-39.17999 46.1,-55.38" /><path
                       id="path176"
                       style="fill:#ffffff;fill-opacity:1;fill-rule:evenodd;stroke:none"
                       d="M 1238.7,470.79001 C 1221.6,497.5 1183.3999,523.12 1153.2999,544.63 c 16.9001,-26.95001 58.5,-49.25 85.4001,-73.83999" /><path
                       id="path178"
                       style="fill:#ffffff;fill-opacity:1;fill-rule:evenodd;stroke:none"
                       d="m 1700.3,604.64001 c 21.9001,5.79999 54.3001,21.02002 71.5,39.22999 -26.5999,-10.28003 -49.4,-24.40998 -71.5,-39.22999" /><path
                       id="path180"
                       style="fill:#ffffff;fill-opacity:1;fill-rule:evenodd;stroke:none"
                       d="m 1204.1,613.87 c -17.2,25.86999 -58.4,47.76 -87.7,69.21997 17.6,-25.46997 60.4001,-45.76001 87.7,-69.21997" /><path
                       id="path182"
                       style="fill:#ffffff;fill-opacity:1;fill-rule:evenodd;stroke:none"
                       d="M 1206.4,715.40002 C 1179.5,750.81 1125.9,779.55005 1093.3001,816.95001 1116.6001,777.88 1166.5,745.53003 1206.4,715.40002" /><path
                       id="path184"
                       style="fill:#ffffff;fill-opacity:1;fill-rule:evenodd;stroke:none"
                       d="m 2291.1001,823.87 c 13.3999,5.78002 24.1999,34.19 34.6001,50.77001 -19.8999,-8.57 -21.5,-35.44 -34.6001,-50.77001" /><path
                       id="path186"
                       style="fill:#ffffff;fill-opacity:1;fill-rule:evenodd;stroke:none"
                       d="m 1928.7,902.34003 c -37.4001,-17.96997 -74.2,-36.52997 -108.4001,-57.70002 27,9.94001 84.7,29.06 108.4001,57.70002" /><path
                       id="path188"
                       style="fill:#ffffff;fill-opacity:1;fill-rule:evenodd;stroke:none"
                       d="m 1014.9,985.40997 c 33.2,-36.44 76.5,-76 120,-106.15997 4.2,-2.92999 10.7,-11.27002 16.1,-6.91998 -46.8,36.28998 -87.9,78.22003 -136.1,113.08001" /><path
                       id="path190"
                       style="fill:#ffffff;fill-opacity:1;fill-rule:evenodd;stroke:none"
                       d="m 2300.3,969.26001 c 12.9,7.13 24.5,35.43999 32.3001,55.33999 C 2318.8,1009.2 2312.5,986.23999 2300.3,969.25995" /><path
                       id="path192"
                       style="fill:#ffffff;fill-opacity:1;fill-rule:evenodd;stroke:none"
                       d="m 2258.7,1569.3001 c 0.8,-25.1 9.6,-65.2 0,-85.4001 -5.9,20.2 -13.4,67.8001 0,85.4001 z M 2256.3999,1470 c 14.3999,4.4 7.8999,-12.1 9.3001,-20.6999 h -7 c 1.6,9.3 -2.2,13.0999 -2.3001,20.6999 z m 150,544.7 c -1.3999,-0.2 -2.6999,-0.4001 -2.3,-2.3001 -47.3001,-57.3 -70.6001,-136.3 -96.8999,-214.6999 -36.3001,-108.2 -77,-219.9001 -60,-362.3001 -14.6001,7.4 -39.6001,23.8001 -46.1001,43.9 -2.5,7.6 2.1001,17 0,25.3001 -3.5,13.4 -17,25.6 -23.1001,37 -15.2,28.3 -11.3001,40 -11.6001,71.5 -0.2,32.1 -18.8999,65.3 -11.5,96.9 4,17.1 24.3,29.4 27.6999,46.2 7.5,37.0999 0.5,73.9 23.1001,103.8 7.1001,9.4 20.1001,15.4 27.7,25.4 21.6999,28.8001 30.5,65.2 69.1999,71.6 25.5,39.1 71.6001,57.6 96.8999,96.8999 32.5,6.8001 47.3001,31.2 80.8001,36.8999 -13.8999,-23.5 -9.2,-53.3 -16.2,-83.1 -2.8999,-12.4 -14,-23.3 -16.1001,-36.9 -1.6001,-10 2.3001,-22.1 0,-32.3 -3.6001,-15.9001 -22.6999,-27.7 -25.3999,-43.8001 -3,-18.1999 4.3999,-37.8 2.3001,-55.4 -1,-8.7 -6.3001,-16.9 -6.8999,-25.4 -1.1001,-15.2 5.6001,-30.6 4.6001,-46.2 -0.7,-11.1 -6.6001,-21.6999 -6.8999,-32.3 -0.5,-18.8001 6.6,-37 4.6,-55.4001 -0.8,-7.4 -5.8999,-15.8 -6.8999,-23 -2.3999,-15.8 2.7,-31.8 0,-46.1999 -2.6001,-13.3001 -18.8,-26.3001 -23.1001,-43.8001 -2.6,-10.6999 0.3001,-22 -2.3,-30 -7.3999,-22.9 -38.8999,-33.9 -39.2,-64.6999 -19.1,-13.9 -41.6,-24.6 -71.6,-27.7 -13.5,103.7 -7.9,187 13.8999,270 29.6999,113.5 70.1001,216.1 120,302.4001 -2.3999,0 -2.8001,-1.9001 -4.7,-2.3001 z m 94.7,-611.6 c 38.6001,22.1999 60.8999,60.6 101.5,80.8 -24,-39.9 -58.6001,-69.0999 -101.5,-90 z M 2895.7,1647.7 c -8.4,-23.3001 -31.2,-36.9001 -41.5,-55.4001 -13.8001,-24.4 -18.2,-47.6999 -46.2,-55.3 -9.5,-33.1 -40.1001,-38.5 -66.8999,-55.4 -18.2,-11.5 -28.6001,-33.5 -48.5,-46.2 -5.3001,-3.4 -13,-3.3 -18.3999,-6.9 -13.8999,-9.2 -24,-24.5 -39.3001,-32.3001 -28.1001,-14.3 -92.6999,-22.8 -126.8999,-16.1999 13.8001,17.4 33.8999,29.6 50.8001,43.9 17.6001,15 34.1999,30.1 50.6999,46.1 16.1001,33.5 42.3999,59.6999 64.7,90 22.1999,30.4 40.8999,63.5 64.6001,92.3 23.6999,29.1 46.3,59.2 69.1999,87.8001 22.8999,28.5 54.7,51.3 64.6001,87.6 -44.8,-51.8001 -87.3999,-107.1 -133.8,-161.5 -22.3001,-26.1 -46.3999,-51.3001 -69.3001,-78.5 -22.6999,-27.1 -38.6001,-61.3001 -62.3,-85.4001 -17.2,-17.5 -39.2,-31.6999 -57.7,-48.4 -17.8,-16.1 -34,-37.1999 -57.6999,-43.9 -12.3001,38.1 0.5,81.8 18.5,103.9 -17.3999,59.8001 43.6999,77 57.6999,108.4 12.1001,27.3001 7.3001,54.2 27.7,71.6 6.6999,5.7 18.5,5.3001 27.6999,11.5 16.5,11.1 27.5,33.4 41.5,41.6 9.7,5.6 22.6001,5.1 32.3001,11.5 9,5.9 11.8999,18.8 20.8,25.4 11.3001,8.3001 24.3999,4.5 36.8999,9.2 8.3001,3.1999 14.8999,12.8 23.1001,16.1999 16.2,6.7 35.3001,5.6 50.8001,11.5 26.1001,10 55.1999,38.1 71.5,60 8.5,11.4 11.8,28.4 27.6999,34.6 23.8999,-70 0.1001,-157.5 -18.5,-219.2 -36.3,0.1 -71.3999,-0.9 -92.3,-16.1999 28.5,-5.2 57.5,8.5 85.3999,11.6 -2.8001,-16.8001 -2,-30.2 -6.8999,-43.9001 z m -616.2,-313.8001 c 3.8999,-6.9 2.6001,-19 4.6001,-27.6999 h -9.2 c 3.7,10.0999 -11,27.4 4.6001,27.6999 z m -726.9,593.1 c 23.6999,-42.2 45.1999,-91.6 41.5,-157 -5.6,-98.3001 -46.7,-202 -78.4,-267.7001 -1.8001,-8.6 2.8,-11 2.3,-18.4 -13,-18.7 -20.8,-39.3001 -39.3,-55.4 -9.6,-8.4001 -23.9001,-11.9001 -32.3001,-20.8001 -6.6,-7 -9.1999,-18.6 -16.1,-25.4 -15.4,-15.1 -57.8,-38.8001 -87.6999,-53 -13.1,-6.3001 -28.9,-7.7 -46.2,-13.9 -31.1999,-11.2 -64.9,-18.5 -106.0999,-18.4001 -30.8001,0 -67.1,3.9001 -87.7,25.3001 78.9,33.4 152.2,72.4 193.8001,143.1 55.6999,48.6999 97.5999,115.1999 136.1999,184.5999 37.9,68.3001 67.3001,153 62.3001,249.3001 -18.1,-87.8001 -30,-176 -69.3001,-249.3001 -17.4,-32.5999 -39,-64.1999 -62.1999,-96.9 -21.7,-30.5 -45,-70.9 -71.6,-90 -13.7,-9.9 -32.7,-18.1 -48.5,-27.6999 -50.1,-30.3001 -101.8001,-54.5 -159.2,-76.1 11.3001,35.8 15,83.9 43.9,113 11.6,11.8 22.9001,10.6 27.7,23.1 4.3,11.5 2.4,27.6999 4.6,39.1999 2.3,12.5 3.8,26.7 6.9,37 6,19.6 15.4,47.3001 27.7,62.3001 7.0999,8.6999 28.9,13.6999 34.5999,25.4 9.3001,18.9 2.9001,39.1999 13.8001,55.3 13.5,19.9001 37,27.6 64.6999,30.1 11.6,36.8001 38.1,58.7 76.1,69.2 27.3001,25 49.1,55.5 62.3001,94.5999 34.3,13.5 54.4,41 62.3,80.8001 22.8,-11.9 31.5,-40.2 43.9,-62.3001 z M 1898.7,1257.7 c -9.1,0.1 0.4,18.9 -11.5,16.1999 -43.3001,-7.4 -89,-0.6999 -92.3001,39.2 -37.6999,15.4 -74.6,31.5 -78.5,80.8 -32.6999,25.7 -76.9,40 -83,92.3001 -18.4,15.4 -43.6999,31.1999 -37,64.5999 -39.1999,27.9001 -13.5,64.4001 -2.3,113.1 15.8,68.3001 28.3,165.2 0,226.1 23.1999,-2.5 45.5999,-5.9 62.3,-16.1 10.1,-6.1999 14.1,-18.6999 23.1,-25.4 23.8,-17.6 56.1,-18.6 80.8,-39.2 0.9001,-34.9 33,-34 55.4001,-46.1999 16.0999,-8.7 32.8,-23.6 43.8,-36.9 7.9,-9.5 10.8,-25.5 20.8,-36.9001 12,-13.8 30.3001,-18.1999 41.5,-27.6999 15.4001,-13 33.5,-33.6 41.6,-57.7 5.2,-15.5 -1.6,-25.0999 4.6,-46.1999 2.8,-9.5 13.1,-13.5 18.4,-23.1 16.9,-30.1 18.2,-66.6 11.6,-110.6999 19.2,-36.7 17.7,-109.3001 -11.6,-133.9001 -106.4,162.8001 -194.8,343.7001 -357.7,450.1 64.5999,-70.1999 137.5999,-132.6 191.5999,-212.4 13.5,-20 31.4001,-35.8001 43.8001,-55.4 41.1999,-64.6 65.1,-133.2 92.3,-212.3001 -15.3,-8.6 -39,-6.6 -57.6999,-2.3 z m 11.5999,-87.7 c -5,-9.6 -21.0999,-8.1999 -34.5999,-9.1999 -1.1,13.0999 32.5999,14.3 34.5999,9.1999 z m -80.8,-9.1999 c 6.1,0 13.1999,-0.9001 16.1999,2.3 2.5,-11.8 -7.5,-11 -16.1999,-11.5 z m -27.7,-6.9001 c 3.1,1.7 18.5,9.9001 18.5,0 2.5,-7.4 -21,-7.4 -18.5,0 z m -994.61997,96.9001 c 109.46997,1.3 192.23999,29.3 270.02007,62.3 51.1999,-36.8 119.8,-38.5 182.3,-30 14.5,2 30.2,12.6 48.5,18.5 11.6,3.7 24.8001,3.1 34.6,6.9 26.3,10.1 73.4,39.6 92.3,55.4001 11.9001,10 17.2,24.8 27.7,34.5999 9.6,9 23.8,12.5 32.3,20.8001 14.5,13.9 33.9001,43.3 39.2,62.3 2.1999,7.8001 0.4,15.6 2.3,23 5.3001,20.8001 21.3001,38 25.4001,57.7 20.9,-3.4 15.5,-26.1 20.8,-41.5 6.7,-19.6 22.9,-31.1 36.9,-41.5 8.4001,-50.1 46.4001,-70.5 83.1,-92.4 6.1,-47.7 38.6,-69.1 78.4,-83 8.2,-40.2 51,-53.2 97,-48.5 14.9,-20.1 62.6,-20.1 85.4,-6.9001 5.8001,-14.9 15,-26.5 16.1,-46.1999 -357.7,-83.5 -863.9,-70.3001 -1172.30003,48.5 l -0.0201,-10e-5 z M 1668,1137.7001 c 4.8001,1.1999 22.3,9.6999 23.1,0 1.4,-7.4 -24.6,-7.4 -23.1,0 z m -170.8,-16.1 c -1.8001,0.5 -2.7,1.9 -2.3001,4.6 v 4.6 c 57.7,-0.6 126,11 170.8001,4.5999 -43.7,-17.0999 -114.2,-7.4 -168.5,-13.8 z m 489.1999,-140.81 c 3.4,27.31 11,56.6101 13.9,85.41 1.3001,12.8 -3.4,32.1999 9.2,39.1999 5.8,-47.3 -2,-101.1 -20.7,-131.53 H 1984.1 c 0.4,2.71002 -0.4,6.54998 2.3,6.91998 z M 996.41992,902.34009 c -26.46002,48.54999 -54.07001,98.26001 -85.39001,147.66001 -29.03003,45.8001 -57.53003,94.9001 -96.91999,126.9001 -28.45001,23.1999 -75.79998,38.5999 -113.09002,57.6999 -114.5,58.8001 -221.52002,125 -323.07999,193.9 -140.92999,95.6 -239.33,205.1 -350.769988,336.9 -14.565,18.8001 -30.7290002,60 2.302999,71.6 21.597002,-15.1 21.171999,-56.5 36.921999,-80.8 7.871003,-12.2 22.543,-24.2 34.615,-39.2 10.79,-13.5 24.97999,-24.9 36.92999,-37 25.59,-25.8 48.17999,-55.5 71.54001,-78.4 100.66,-99 221.60001,-174.1 350.76996,-244.6999 64.96002,-35.4001 138.75,-72.1 221.53998,-78.4001 178.14996,-13.5 297.31004,66.3001 429.21004,122.3001 -2,-15.7 -18.6,-21 -30,-27.7 -38.7,-22.6999 -80.6,-36.3 -124.6,-53.1 -57.28998,-21.8 -113.71002,-46.5999 -182.28998,-53 -41.76001,-4 -102.60998,5.3001 -133.85003,-11.5999 206.88,-79.3001 458.84001,-113.4001 729.24001,-129.2 -235.4,-12.9 -478.88003,35.8001 -664.62002,87.7 47.23999,-18.3001 68.48999,-60.5 94.60999,-101.6 28.36999,-44.6 54.67999,-89.4 76.15002,-136.12 10.97998,-23.90003 25.16001,-51.77002 23.09003,-73.83997 z M 2221.8198,491.55008 c 11.6001,38.24997 31.5,74.87002 39.2,115.38998 7.3999,38.07001 12.5,86.53003 9.3,129.23999 -2.5,33.15998 -16,65.53998 -20.8,99.22998 -3.1001,21.60999 0.8999,46.35999 -4.6001,66.93 -2.7,10.28003 -8.7,15.77002 -9.2,25.36999 -1.1001,20.31 11,39.42999 18.3999,55.39002 -25,39.49996 20.5,74.00006 23.1001,106.20006 1.1001,13 -7.1999,26.8 -4.6001,41.5 3.7,20.5 16.6001,34.6999 36.8999,41.5 20,-49.8001 39.3001,-104.3001 43.8999,-168.4001 8,-111.71995 -29.3,-232.78995 -34.6001,-320.80997 26,72.05999 39.8999,167.91998 46.1001,260.77997 2.2,32.69 -4.6999,67.03 0,96.9301 4.3999,27.5999 -5,53.0999 -11.5,80.8 -5.8,24.4 -11.6001,45.8001 -16.1999,66.9 46.6999,-10.1999 64.6999,-49.1999 96.8999,-73.9 2.3999,-33.1999 30.6001,-49 34.6999,-78.4 1.3001,-9.5 -2.8999,-18.6 -2.3,-27.7 0.6999,-12.27006 7.8999,-23.79002 9.1999,-34.63004 2.3999,-20.89002 -4.6999,-39.14002 -4.6001,-60.01001 0,-18.12 6.3001,-28.97998 4.6001,-43.84003 -2.5,-20.85999 -17.8,-30.96002 -25.3999,-55.38001 -3.8999,-12.53002 -2,-28.23999 -6.8999,-41.53997 -7.6999,-20.84998 -28.5,-36.87 -39.3,-55.39002 -18.5,-31.84997 -33.7,-60.32001 -60,-78.46002 -9,-32.72998 -39.3001,-50.28003 -57.6001,-76.16003 -19.3001,-27.19001 -32.2,-60.71 -62.3999,-78.46 h -4.6001 c 0.3999,2.71 -0.3999,6.54999 2.3,6.92002 z m -623.0999,-124.62 c 0.8,7.84 -1.7,17.71 0,25.38999 6.1999,27.88 32.0999,48.75 20.8,80.76999 2.3001,17.73001 25.5,36.70001 25.4,57.68997 -0.1,8.85998 -8.6999,19.45001 -9.1999,27.69 -1.5,25.32001 10.4,59.90997 18.4,83.09003 8.5,24.69 25.3,46.90997 34.6,69.21997 -23.4,52.07001 41.5999,64.95001 50.8,101.54999 3.3001,13.09997 -2.6999,29.53998 2.3001,43.84002 11.0999,31.66999 56.3,32.98999 73.9,53.08002 5.1,5.88001 4.9,16.87 9.1999,23.09003 25.1,36.59997 73.5,36.96002 96.9001,66.91003 -2.3001,56.24998 29.3,78.44998 69.3,92.34998 -9.6999,-194.79999 -77.5,-316.92005 -166.1999,-431.57996 -48.5,-62.69 -99.9001,-122.28998 -138.5,-189.22998 68.4,75.60999 134.1999,158.83002 196.1999,249.22998 29.1,42.51001 54,89.28003 76.2,145.38001 27.8,70.34997 72.0999,135.79995 62.3,240.00005 42.6001,-19.2 44.8001,-93.4001 41.5,-140.76006 -2.8999,-41.37 9.7,-69.91999 0,-101.53998 -5,-16.14002 -19.6,-27.09998 -25.4,-46.15003 -6.9,-22.82 -6.5,-57.46002 -16.1,-73.85998 -12.3,-20.90003 -35.6999,-28.02002 -46.1999,-48.46002 -6.1,-11.84998 -5.7,-26.29999 -11.5,-39.22998 -8,-17.39002 -30.3001,-32.65003 -41.6,-53.07001 -13.9,-25.26001 -18.7,-49.33002 -32.3001,-64.63001 -7.6999,-8.65997 -25.0999,-14.85998 -36.9,-25.38 -8.1999,-7.28 -13.3,-16.66 -20.8,-23.07001 -8.4001,-7.19 -16.7,-17.17999 -25.4001,-20.76999 -9.5,-3.95999 -20.6999,-0.45001 -30,-4.61999 -14.8,-6.67999 -30.0999,-29.22 -46.0999,-41.54001 -17.6,-13.53 -36.6,-25.37 -53.1,-36.92999 -36.9,-25.78 -60.2,-62.41001 -87.7,-92.29999 h -4.5999 c -3.1,26.72 11.1999,47.73999 13.8,73.84 z m -510,-214.61 c -12.8001,2.63001 -17.5,-11.89999 -27.7,-4.61999 -27.6999,24.53999 -26.4,78.16 -32.3,124.62001 -4.7,5.26999 -20.6,-0.66 -25.4001,4.61999 -21.73997,41.29001 -31.68998,94.42002 -32.27,156.92002 -4.83001,6.70999 -19.95001,3.11999 -25.39001,9.23001 -24.02002,37.51999 -35.98999,87.08999 -36.91998,147.69998 -6,5.53998 -19.85999,3.21997 -27.69001,6.91998 -28.80999,40.77002 -43.73999,100.22998 -36.91998,173.08002 0.88001,9.48999 6.19,18.94 4.60999,27.69 -1.81,10.03003 -14.90003,17.19 -18.46002,27.69 -18.53998,54.63001 5.04998,115.69001 18.46002,161.54999 -11.38001,36.18001 3.91998,80.98001 18.46002,106.18011 63.57001,-94.16009 132.38,-203.51006 170.81997,-332.35003 18.3,-61.73999 33.9,-132.22998 48.4,-203.08002 18.2,-88.29998 38.7,-179.97998 41.6,-272.30999 9.8,88.73001 -8.4,195.95001 -23.1,267.70001 -10.4,50.94 -11.8,100.60998 -23.1,147.70001 -33.3,138.66003 -86.24998,264.37 -143.07999,376.14002 68.57999,-20.4 129.17999,-61.6 189.27999,-110.75 49,-40.08002 145.5,-118.53003 122.3,-196.16004 25.7,-45.40997 55.8001,-96.88 57.7,-154.61999 0.3,-10.88001 0.8,-33.08002 -4.6,-46.15003 -2.5,-5.91998 -16.6999,-13.81 -18.5,-23.08002 -2.1,-10.79998 5.7,-23.44 6.9,-34.61999 4.9001,-45.97 1.4001,-100.42999 -6.9,-143.08002 -7,-3.76999 -19.4,-2.17001 -20.8,-11.54001 10.8,-67.42001 -7.6,-140.16 -39.2,-180 -10.1999,-1.28999 -13.9,12.16001 -23.1,4.62 -18.6999,-62.79 -45.4,-117.640001 -90,-154.619996 -0.3,48.959999 -2.6999,95.709996 -23.0999,124.619996 z m 122.3,9.23 c 4.2,5.05 18.1,0.39 23.1,4.61 34.1999,41.96001 50,102.31999 48.5,180.00002 39.1999,34.02999 27.3,138.11999 18.4,193.85003 49.4,70.53998 -0.5,179.21997 -34.6,230.78003 16.3001,64.12 -37.5,122.82001 -76.0999,161.54999 -55.3001,55.40002 -133.2,111.46005 -210.04003,145.36005 -15.47998,6.9 -36.48999,9.9 -50.77002,18.5 -26.48999,15.9 -42.20001,69 -62.31,92.3 184.82005,-52.4 453.52005,-91.0999 706.12005,-78.5 149.4999,7.5 292.9,33.8001 417.7999,60 6.8,-19.1999 -3.2,-41.4 0,-64.5999 -49.1,-13.2 -82.7,-41.9001 -85.4001,-101.5 -37,-26.87003 -88.1999,-39.55002 -103.9,-87.72 -44.1,-16.70001 -84.1999,-37.29999 -78.4,-103.84998 -14.7,-22.63 -48.3,-35.96997 -53.1,-73.84997 -1.0999,-8.48999 3.9001,-18.39002 2.3001,-27.70002 -2,-11.19 -12.8001,-23.11999 -18.5,-34.60998 -5.9,-12.02002 -9.7,-24.81 -13.8001,-36.91998 -11.8,-34.57001 -29.5,-81.43 -9.1999,-108.46997 -8.6,-20.71 -19.1,-39.44001 -27.7,-59.98999 -2,-9.65 4.4001,-10.9 4.6,-18.47001 -25.1,-58.94 -42.9,-149.19998 -39.3,-221.55 18.4,8.8 17.4,27.39 25.4,41.55 44.3,78.23002 123.5999,119.80002 189.1999,177.69999 33.7,2.91 52.4,22.92999 76.2,43.83999 15.6999,13.76001 34.1,25.56003 43.9,36.92002 17,19.96997 21.8,48.79998 36.9,71.54998 10.1,15.33002 22.3001,25.76001 30,39.22998 8.9,15.79999 9.8001,32.22998 18.5,48.46003 11.5,21.67999 36.2,29.89001 46.1,46.15997 13.4,21.97998 9.7,52.15002 18.5001,78.46002 9.3999,28.35999 27,42.70001 30,66.91998 2.8001,23.03003 -6.3,46.52997 -4.6999,80.77002 1.3999,29.62 2.8,59.07002 -2.3001,96.87002 -17.8999,24.4001 -29.1,55.5 -55.3,71.6 4.5,13.9 1.3,35.6 2.3,53.1 83.7,27.8 170.1001,52.9 256.1001,78.4 13.1001,-20 16.8999,-49.1999 25.3999,-73.8 -27.6001,-17.5 -58.5,-52 -41.5,-99.2 -5.6999,-21.8 -24.3,-36.9 -27.6999,-64.6999 -1.6001,-12.6 3.8999,-26.20005 2.3,-39.19004 -2.3999,-19.92999 -19.1999,-37.69 -18.5,-57.70001 0.3999,-10.97998 8.7,-18.35999 11.6001,-30 4.8999,-20.19 1.8999,-44.83002 4.6001,-64.60999 4.5,-33.07 16.2,-62.09002 18.3999,-92.30999 2.2,-29.53003 0.2,-62.08002 -2.3,-92.31 -6.1001,-73.33002 -44.3001,-127.28998 -53,-198.46002 22.3,-3.01999 35.1999,22.23001 48.3999,36.91998 19.1999,21.29001 33.3,42.06 50.8,66.91998 8.2,11.68 23,19.90998 32.3001,32.32001 12.6999,17.01001 19.8999,38.83002 32.3,53.07001 9.3999,10.78998 25.7,16.54999 34.6001,27.69 10,12.44 13.1001,30.65002 20.8001,43.84003 11.3999,19.58001 28.1999,31.23999 36.8999,48.47998 7.6999,15.28998 5.5,33.82 11.6001,53.07 7.8999,25.13001 23,37.03003 25.3,55.38001 2.2,17.59003 -3.3999,33.19 -2.3,53.09003 0.8,14.32 5.5,27.15002 4.6001,41.52996 -0.8999,14.26001 -10.3001,29.13001 -11.5,48.46996 -0.5,8.1 3.3,16.5 2.3,25.4 -2.3999,20.8001 -19.6999,34.4001 -27.6999,55.4001 -10.8001,28.1999 -12.8001,35.5 -36.8999,57.6999 -22.8001,20.9 -38.8999,41.2 -66.8999,55.3001 -7.5,3.8 -12.5,1.0999 -20.8001,0 -5.6001,22.0999 -13.5,42 -18.5,64.6999 61.1001,30.5 116.2,66.9 173.1001,101.5 39.6001,-20.6 118.5,-7.5 154.6001,11.5 14.8,7.8001 24.5,21.8001 37,30 13.6001,9.1 25.1001,15.5 36.8999,25.4 10.5,8.8001 20.3001,22.1 32.3001,30 7.3,4.9001 18.1,5.2 25.3999,9.3001 18.6001,10.3 27.8,29.9 46.1001,48.4 20,20.2 45.5,26.7 50.8,60 25.7,19.6 34.2,49.2 46.1001,87.7 4.6001,14.5 14.1001,26.8 18.5,41.5 4.6999,15.5999 3.5,31.9 6.8999,50.8 2.2,11.8001 9.3999,23 11.6001,34.6 9.8,52.3 1.1001,106 -23.1001,147.6999 -25.3,-17.5999 -28.8999,-40.5 -43.8,-60 -13.9,-18 -35.6001,-38.9 -55.4,-48.4 -13.8,-6.6999 -32.3,-4.8 -50.8,-11.6 -8,-2.9 -17.7,-13.6999 -30,-18.4 -26.3,-10.1999 -52,-12.5 -62.3,-39.3 -35.3001,-1 -49.7,-36.4001 -71.6001,-50.7 -16.7,-11 -34.7,-16.3 -46.1001,-34.6 -9.5,-15.3 -7.2,-34.6999 -16.2,-55.4 -10,-23.3 -46.6999,-36.1999 -55.3,-64.6 -4.5,-14.5999 0.3,-30.5999 -2.3001,-43.9 -5,-24.5 -26.3,-40.6999 -25.3999,-78.5 0.3001,-14.4 4.6001,-25.8 11.5,-43.8 -41,-52.1 -121.5,-64.6 -177.6999,-101.5 21.6001,-0.7 44,17.3 69.1999,20.6999 -13.6999,-24 -45.1001,-30.1999 -66.8999,-46.1 5.8001,-45 25.2,-88.6999 27.7,-129.3 -13.8999,3.5 -10.8001,22 -13.8001,32.3 -8.8999,29.9001 -22.1999,67.6 -34.6001,97 -97.1999,-20.5999 -183.8999,-51.5 -272.4,-80.8 -2.7,-25 6.5,-61.8001 -6.9,-76.2 -8,10 0.9,41.9001 -2.3001,62.3001 -0.3,7.4 -5.1999,10.1999 -13.8,9.3 4.4,53.9001 -39.2,90.9001 -48.5,145.4001 21.0999,-9.4001 28.6999,-35.6 39.1999,-55.4001 10.8001,-20.1999 20.1,-42.3 30,-62.3 89,19.4 173.3001,43.6 258.5,66.9 5.2,5.5 8.8001,12.7 9.2,23.1 3.6001,-4.9 5.8,-11.1 13.8999,-11.6 -0.8001,48.5 -9.7,88.8001 -13.8999,133.9 25.1001,16.8001 62.6999,15.3001 80.8,41.5 4.7,6.8001 2.3001,16.4001 6.8999,25.4001 8.1001,15.8 27.2,26.5 32.3001,39.1999 3.6001,9 0.8,22 4.6001,34.7 4.8999,16.0999 20.5,30 23.1001,43.8 7.1999,37 2.6001,84.2 4.6001,126.9 0.6001,11.5 6.5,21.6 6.8999,32.3001 0.6999,14.6999 -5.2,29.5 -4.6001,43.9 0.6001,11 6.3,23.8001 7,36.9 0.6999,15.4001 -5.1001,31.3001 -2.3999,43.9001 3.3999,15.1999 21.8,26.3 25.3999,43.8 6.1001,29.2 0.1001,56.8001 18.5,73.9 -2.8001,23.5 -1,42.3001 6.8999,57.7 12.1001,23.1999 40.6999,30.6001 48.5,48.3999 -8.8001,11.5 -28.6001,1.5 -39.2,-2.3001 -28.5,-10.1001 -48.1001,-20.5 -73.8999,-34.6001 -12.6999,-7 -28.1001,-12.1001 -36.8999,-18.5 -14.8999,-10.6999 -22.1999,-32.4 -36.8999,-43.8 -22.1001,-17.2 -44.6001,-25.7 -53.1001,-48.5 -43.8,-9.3001 -51.5,-47.8001 -78.5,-80.8001 -7.1001,-8.5999 -19.1999,-14.6999 -25.3999,-23 -13.1001,-17.8 -22.8999,-47.8 -25.3,-69.3 -1.5,-12.6 2.8999,-25.8001 0,-39.2 -4.1001,-18.3 -23.3999,-30.0999 -27.7,-43.9 -9.8999,-31.3 8.8001,-59.1 9.2,-99.1999 0.1001,-8.2 -5.1001,-17.5 -4.6001,-27.7 0.6001,-14.6999 9.1999,-29.8 16.1001,-43.8 5.8999,-11.8001 18.8999,-24 23.1001,-36.9001 3.3,-10.0999 -0.8001,-21.0999 2.3,-30 8.8999,-25.6999 37.5,-47.5999 62.3001,-50.8 5,-44.2 10.1,-88.4 13.8999,-133.9 -75.5,-27.6 -161.2,-44.9 -242.3001,-66.9 -4.6999,10.5 -28.6,33.6999 -27.6999,50.8 0.5,10.3 16.1999,22.3 20.6999,32.3 5.2,11.6 10.5,30.1 11.6,43.8001 1.9,24.9 -8.9,41.3 -11.6,71.6 -4.3,48.9 9.2,98.1999 -30,133.8 -3.3,73.6 -42.5,111.4 -92.3,138.5 -20.5,47.2 -58.2,77.1 -108.5,94.6 -5.9001,41.6 -58.1,46 -90,66.9 -12.6,8.4 -20.9001,24.8001 -34.6,32.3001 -22.5,12.5 -44.1,14.1999 -69.2,16.1999 -34.4,34.9 -42.6999,95.8001 -92.3,115.4 -8,-30.4 -11.3001,-67.8 -36.9,-87.6999 -8.4001,-6.5 -18.2,-7.5 -27.7,-13.8001 -11.1999,-38.0999 -33.1,-65.4 -55.4,-92.4 -41.2,-8.6999 -67.8001,-32.1999 -80.8001,-69.1999 -50.0999,-7.6 -78.0999,-37.3001 -80.8,-92.3001 -40.5,-25.4 -65.7,-79.8 -73.8001,-143.1 -0.8,-6.5 2.5,-16.5999 0,-23.0999 -4.9,-12.6 -24.0999,-19.3001 -34.5999,-34.6 -22.8001,-33.1 -30.1,-76.3001 -34.6,-115.4 -82.41005,-29.8001 -172.96004,-68.6 -281.57002,-60 -93.62,7.5 -169.56,49.3 -242.32001,87.6999 -147.22998,77.8001 -273.59,166 -380.76999,279.2999 -27.59,29.1 -57.91,52.6 -80.772003,85.4001 -23.277001,33.1999 -24.195,78.4 -57.695,106.0999 -49.585999,-24.5999 -28.0669996,-58.6999 2.304001,-96.9 39.993004,-50.3 84.883002,-104.9 122.310002,-147.6999 58.16001,-66.5 127.45002,-119.2 191.53998,-168.5 33.08002,-25.4001 72.37,-49.4001 108.45999,-71.5 75.69998,-46.3001 146.44998,-88.4001 226.17002,-133.9001 62.46002,-35.5999 140.98999,-55.1999 175.38,-117.6999 -7.57001,-26.9 -21.86999,-52.2 -25.38,-85.4 -1.38001,-13 3.47998,-27.28006 2.30999,-41.49002 -3.02002,-36.60999 -22.69,-65.97998 -23.08001,-101.54999 -0.16999,-15.19 1.01001,-36.97998 4.61999,-53.07001 3.27002,-14.63 15.96002,-21.97998 18.46002,-34.60998 4.15998,-21.08002 -4.66998,-45.47998 -4.61999,-66.92999 0.15002,-58.03998 17.60998,-136.75 66.92999,-150 3.71002,-70.13001 16.52002,-131.16999 62.29999,-159.22999 5.17999,-68.67999 8.46002,-139.23999 57.72005,-163.85 4.9,-50.51 11.3,-99.48999 41.5,-124.62 11.8,-1.82 16.8,3.23 27.6999,2.30001 16.8001,-36.584003 9.7,-96.268001 13.9001,-133.85000956543 C 1152.8175,27.50032 1186.1174,96.480324 1211.0175,161.55032" /><path
                       id="path194"
                       style="fill:#ffffff;fill-opacity:1;fill-rule:evenodd;stroke:none"
                       d="m 2655.7,1495.4 c 24.8,-1.4 82,4 110.6999,13.9001 C 2739.0999,1509.9 2680.2,1511.9 2655.7,1495.4" /><path
                       id="path196"
                       style="fill:#ffffff;fill-opacity:1;fill-rule:evenodd;stroke:none"
                       d="m 1799.5,1502.3001 c -22.4,19.1999 -80.4,2.6999 -113.1,11.5999 15.1,-15.8 81.4,-12.3 113.1,-11.5999" /><path
                       id="path198"
                       style="fill:#ffffff;fill-opacity:1;fill-rule:evenodd;stroke:none"
                       d="m 2736.3999,1592.3001 c 19.7,-5.3001 62.8001,4.6999 83.1001,13.9 -23.8,0.6999 -60.3,-5.8001 -83.1001,-13.9" /><path
                       id="path200"
                       style="fill:#ffffff;fill-opacity:1;fill-rule:evenodd;stroke:none"
                       d="m 2304.8999,1590 c 21.6001,23.8001 38.8999,51.9 55.3999,80.8001 -19.6001,-16.5 -39.8999,-52.4001 -55.3999,-80.8001" /><path
                       id="path202"
                       style="fill:#ffffff;fill-opacity:1;fill-rule:evenodd;stroke:none"
                       d="m 1448.7,1610.8001 c 22,-1.1 50,11.5999 67,23.0999 -19.5,-1.3 -50.4001,-11.0999 -67,-23.0999" /><path
                       id="path204"
                       style="fill:#ffffff;fill-opacity:1;fill-rule:evenodd;stroke:none"
                       d="m 2318.8,1737.7 c 8.7,-1.8001 20.5,16.4 30,27.6999 10.3001,12.4 20.6001,26.1 27.6001,36.9 -21.8999,-9.5999 -42.3,-40.6999 -57.6001,-64.5999" /></g></g></g></g></g></g></g><g
         id="g206"><g
           clip-path="url(#clipPath212)"
           id="g208"><g
             transform="matrix(3.125,0,0,3.125,537.18359,1001.2382)"
             id="g214"><text
               id="text218"
               style="font-variant:normal;font-weight:normal;font-size:13.32999992px;font-family:GlacialIndifference;-inkscape-font-specification:GlacialIndifference-Regular;writing-mode:lr-tb;fill:#ffffff;fill-opacity:1;fill-rule:nonzero;stroke:none"
               transform="translate(0,14)"><tspan
                 id="tspan216"
                 y="0"
                 x="0 21.102522 34.701336 51.232323 69.282722 87.199837 101.46507 121.84788 137.95236 159.13486 175.66585 194.31601 212.36641">WITER CLOTHES</tspan></text>
</g></g></g></g></g></svg>